<svg width="301" height="100" viewBox="0 0 301 100" fill="none" xmlns="http://www.w3.org/2000/svg">
<g clip-path="url(#clip0_1581_26661)">
<path d="M29.0045 1.00163L1.32511 17.512C0.922206 17.7529 0.587732 18.0988 0.355176 18.515C0.12262 18.9312 0.00015034 19.403 0 19.8834V52.9085C0.00015034 53.3889 0.12262 53.8608 0.355176 54.277C0.587732 54.6931 0.922206 55.0389 1.32511 55.2799L29.0045 71.7879C29.4087 72.0286 29.8672 72.1554 30.334 72.1554C30.8007 72.1554 31.2592 72.0286 31.6634 71.7879L59.3428 55.2799C59.7457 55.0389 60.0802 54.6931 60.3127 54.277C60.5453 53.8608 60.6677 53.3889 60.6679 52.9085V19.8834C60.6677 19.403 60.5453 18.9312 60.3127 18.515C60.0802 18.0988 59.7457 17.7529 59.3428 17.512L31.6634 1.00163C31.2592 0.760943 30.8007 0.634277 30.334 0.634277C29.8672 0.634277 29.4087 0.760943 29.0045 1.00163ZM24.493 56.0531L27.7796 41.6132C27.8031 41.5086 27.8003 41.3995 27.7713 41.2964C27.7423 41.1933 27.6882 41.0995 27.614 41.0242L19.6327 33.0107C19.5756 32.9528 19.5302 32.8837 19.4992 32.8075C19.4682 32.7312 19.4523 32.6494 19.4523 32.5668C19.4523 32.4841 19.4682 32.4023 19.4992 32.3261C19.5302 32.2499 19.5756 32.1808 19.6327 32.1228L35.2094 16.1453C35.302 16.0494 35.4223 15.9874 35.5522 15.9686C35.6821 15.9498 35.8144 15.9753 35.9289 16.0413C36.0434 16.1072 36.1339 16.2099 36.1866 16.3338C36.2393 16.4577 36.2513 16.5959 36.2207 16.7275L32.9297 31.2035C32.905 31.308 32.9073 31.4174 32.9364 31.5207C32.9655 31.624 33.0203 31.7177 33.0953 31.7924L41.0156 39.7632C41.0726 39.821 41.118 39.8899 41.1489 39.9659C41.1799 40.042 41.1958 40.1235 41.1958 40.206C41.1958 40.2884 41.1799 40.3701 41.1489 40.4461C41.118 40.5222 41.0726 40.5911 41.0156 40.6488L25.4911 56.6376C25.3977 56.731 25.2777 56.7908 25.1487 56.8081C25.0197 56.8253 24.8887 56.7992 24.7753 56.7335C24.6619 56.6678 24.572 56.5661 24.5192 56.4436C24.4664 56.321 24.4533 56.184 24.482 56.0531H24.493Z" fill="url(#paint0_linear_1581_26661)" style=""/>
<path d="M15.5186 92.9606V81.2026H17.2707V82.9779C17.4992 82.3877 17.9114 81.8866 18.4465 81.5485C19.0138 81.1964 19.6694 81.0125 20.337 81.0182H21.3053V82.8626H20.8903C20.6681 82.8387 20.4439 82.8387 20.2217 82.8626C19.6849 82.8615 19.1555 82.9879 18.6771 83.2315C18.249 83.453 17.8901 83.788 17.6396 84.1998C17.3682 84.626 17.2316 85.1241 17.2477 85.6292V93.0759L15.5186 92.9606Z" fill="white" style="fill:white;fill:white;fill-opacity:1;"/>
<path d="M28.2217 93.1911C27.1971 93.2131 26.1856 92.9582 25.2938 92.4533C24.4761 91.9389 23.8206 91.2036 23.4033 90.3324C22.9424 89.3443 22.7137 88.2638 22.7347 87.1738C22.7148 86.069 22.9432 84.9739 23.4033 83.9692C23.8053 83.089 24.454 82.3442 25.2707 81.8252C26.0916 81.2884 27.0568 81.0149 28.0373 81.0413C28.6569 81.0376 29.2728 81.1389 29.8586 81.341C30.4627 81.5635 31.0184 81.9001 31.4955 82.3324C32.0182 82.8399 32.4133 83.464 32.6482 84.1536C32.969 85.0395 33.1177 85.9786 33.0863 86.9202V87.681H23.9105V86.1364H31.1497C31.1561 85.5151 31.0221 84.9004 30.7577 84.3381C30.4953 83.8384 30.1056 83.4169 29.6281 83.1162C29.1153 82.8021 28.5231 82.642 27.922 82.6551C27.257 82.6398 26.6039 82.8333 26.0546 83.2084C25.5453 83.552 25.1326 84.0203 24.8557 84.5687C24.5773 85.1433 24.4353 85.7745 24.4407 86.413V87.4505C24.41 88.2446 24.568 89.0348 24.9018 89.756C25.1781 90.3459 25.6287 90.8367 26.1929 91.1623C26.7762 91.4913 27.4368 91.6584 28.1064 91.6464C28.5456 91.6528 28.9825 91.5826 29.3975 91.4389C29.7654 91.3089 30.1028 91.1049 30.3889 90.8396C30.6889 90.5501 30.9178 90.1949 31.0574 89.8021L32.7866 90.3093C32.6079 90.8909 32.2916 91.4207 31.8644 91.8539C31.4094 92.3033 30.8683 92.6562 30.2736 92.8914C29.6129 93.1126 28.9181 93.2141 28.2217 93.1911Z" fill="white" style="fill:white;fill:white;fill-opacity:1;"/>
<path d="M39.1958 93.3296C38.495 93.3396 37.8011 93.1898 37.1669 92.8915C36.5815 92.6226 36.0797 92.2004 35.7145 91.6696C35.3532 91.0809 35.1691 90.4005 35.1842 89.7099C35.1633 89.1388 35.2988 88.5728 35.5762 88.0731C35.8343 87.6534 36.2006 87.311 36.6367 87.0817C37.1034 86.8362 37.5991 86.6503 38.1122 86.5284C38.6655 86.4131 39.1958 86.3209 39.7491 86.2517L41.4782 86.0442C41.8221 86.0255 42.1589 85.9393 42.4695 85.7907C42.5733 85.726 42.6566 85.6331 42.7097 85.5229C42.7627 85.4127 42.7834 85.2897 42.7692 85.1682C42.8057 84.5213 42.591 83.8853 42.1698 83.393C41.9158 83.17 41.6196 83.0001 41.299 82.8932C40.9783 82.7863 40.6394 82.7446 40.3024 82.7705C39.5798 82.7226 38.863 82.9263 38.2736 83.3469C37.8413 83.6626 37.4865 84.0725 37.2361 84.5457L35.5301 83.9463C35.7852 83.2891 36.2061 82.7094 36.752 82.2633C37.2472 81.8696 37.8211 81.5865 38.435 81.4333C39.0206 81.2701 39.6253 81.1849 40.2332 81.1797C40.6746 81.1859 41.1144 81.2322 41.5473 81.3181C42.0526 81.4171 42.5365 81.6043 42.9767 81.8714C43.4666 82.1743 43.865 82.6046 44.1295 83.1163C44.4798 83.8321 44.6387 84.6264 44.5906 85.4218V93.1682H42.7692V91.5774C42.6178 91.8791 42.415 92.1522 42.1698 92.3843C41.8432 92.7104 41.45 92.962 41.0171 93.1221C40.4327 93.3246 39.8107 93.3955 39.1958 93.3296ZM39.4724 91.6927C40.0978 91.7142 40.7179 91.571 41.2707 91.2776C41.7407 91.0286 42.132 90.6534 42.4004 90.1941C42.6455 89.7662 42.7727 89.2809 42.7692 88.7878V87.1278C42.6372 87.2593 42.4684 87.3478 42.2851 87.3815C41.9893 87.4608 41.6891 87.5224 41.386 87.5659C41.0669 87.6348 40.7433 87.681 40.4177 87.7042L39.6569 87.8194C39.2099 87.8625 38.7691 87.9554 38.3427 88.0962C37.9974 88.2285 37.6891 88.442 37.4436 88.7186C37.1885 89.0204 37.0567 89.4074 37.0747 89.8022C37.0565 90.0792 37.1132 90.356 37.239 90.6035C37.3648 90.851 37.5549 91.0599 37.7894 91.2085C38.3008 91.499 38.8853 91.6352 39.4724 91.6004V91.6927Z" fill="white" style="fill:white;fill:white;fill-opacity:1;"/>
<path d="M53.0058 81.2028V82.7245H46.9194V81.2028H53.0058ZM48.6946 78.3672H50.4929V89.5948C50.4639 89.9854 50.5437 90.3764 50.7234 90.7245C50.8489 90.9569 51.0533 91.1368 51.2998 91.2317C51.5422 91.3261 51.8005 91.3731 52.0606 91.37H52.8445L53.2133 92.9838L52.7061 93.1222C52.4302 93.1501 52.1521 93.1501 51.8762 93.1222C51.3587 93.1288 50.8464 93.0185 50.3776 92.7994C49.8893 92.5836 49.4674 92.2414 49.1557 91.808C48.8392 91.2964 48.6789 90.7035 48.6946 90.102V78.3672Z" fill="white" style="fill:white;fill:white;fill-opacity:1;"/>
<path d="M60.4986 93.1911C59.5149 93.2109 58.5464 92.9467 57.709 92.4303C56.8876 91.9269 56.2369 91.1878 55.8416 90.3093C55.3788 89.3137 55.1501 88.2254 55.173 87.1277C55.1531 86.0229 55.3815 84.9278 55.8416 83.9232C56.2721 83.0696 56.9311 82.3522 57.7452 81.8511C58.5593 81.3499 59.4965 81.0845 60.4525 81.0845C61.4085 81.0845 62.3457 81.3499 63.1598 81.8511C63.9739 82.3522 64.6329 83.0696 65.0635 83.9232C65.5345 84.9242 65.7634 86.0219 65.7319 87.1277C65.765 88.2263 65.5359 89.317 65.0635 90.3093C64.6682 91.1878 64.0174 91.9269 63.196 92.4303C62.3852 92.9299 61.451 93.1934 60.4986 93.1911ZM60.4986 91.5773C61.2121 91.6089 61.9139 91.3885 62.4813 90.9548C63.0222 90.5333 63.4304 89.9651 63.6571 89.318C63.9009 88.6135 64.0256 87.8732 64.026 87.1277C64.0218 86.3826 63.8973 85.6429 63.6571 84.9375C63.4237 84.2939 63.0167 83.7274 62.4813 83.3006C61.9055 82.8809 61.2112 82.6548 60.4986 82.6548C59.786 82.6548 59.0918 82.8809 58.5159 83.3006C57.9797 83.7216 57.5789 84.2908 57.3632 84.9375C57.1025 85.6382 56.9698 86.3801 56.9713 87.1277C56.9678 87.8755 57.1006 88.6178 57.3632 89.318C57.5738 89.9672 57.9756 90.5377 58.5159 90.9548C59.0833 91.3885 59.7851 91.6089 60.4986 91.5773Z" fill="white" style="fill:white;fill:white;fill-opacity:1;"/>
<path d="M68.4751 92.9607V81.2028H70.2043V82.978H70.3426C70.5545 82.3851 70.9608 81.8814 71.4953 81.5487C72.0713 81.197 72.734 81.0133 73.4088 81.0184H74.3311V82.8627H73.2244C72.6946 82.8589 72.1721 82.9856 71.7028 83.2316C71.2634 83.4455 70.8951 83.7817 70.6423 84.1999C70.3819 84.6309 70.2462 85.1258 70.2504 85.6293V93.076L68.4751 92.9607Z" fill="white" style="fill:white;fill:white;fill-opacity:1;"/>
<path d="M84.8212 83.8311L83.2073 84.2922C83.0892 84.0044 82.9342 83.7332 82.7462 83.4853C82.5339 83.2133 82.2564 82.9991 81.9393 82.8628C81.5374 82.6701 81.0931 82.5829 80.6482 82.6092C80.0139 82.5876 79.3877 82.7562 78.85 83.0933C78.639 83.2275 78.4637 83.4109 78.3392 83.6278C78.2147 83.8446 78.1447 84.0884 78.1353 84.3383C78.1261 84.5464 78.1675 84.7537 78.2558 84.9424C78.3441 85.1311 78.4768 85.2956 78.6425 85.4219C79.1036 85.7327 79.6202 85.9518 80.1641 86.0674L81.9163 86.4824C82.7728 86.6703 83.5666 87.0752 84.2217 87.6582C84.4764 87.9293 84.6747 88.2482 84.8053 88.5964C84.9359 88.9447 84.9962 89.3153 84.9825 89.687C84.9943 90.3337 84.7916 90.966 84.4062 91.4853C83.9898 92.0377 83.4323 92.4677 82.7923 92.7302C82.0655 93.0466 81.2794 93.2038 80.4869 93.1913C79.4391 93.2367 78.4021 92.9634 77.5128 92.4075C77.1167 92.1482 76.779 91.8092 76.521 91.4123C76.263 91.0154 76.0904 90.5692 76.0142 90.102L77.7434 89.6639C77.8573 90.2405 78.1872 90.7518 78.6655 91.0933C79.2074 91.4186 79.8323 91.5788 80.4638 91.5545C81.1706 91.5842 81.8698 91.3993 82.4696 91.0242C82.6857 90.8825 82.8653 90.6916 82.9935 90.4672C83.1217 90.2428 83.195 89.9913 83.2073 89.7331C83.2127 89.541 83.1787 89.3498 83.1073 89.1714C83.0359 88.9929 82.9287 88.831 82.7923 88.6956C82.4141 88.3801 81.9619 88.1659 81.4782 88.0732L79.5186 87.612C78.651 87.4417 77.8508 87.0256 77.2131 86.4132C76.9584 86.1422 76.7601 85.8233 76.6295 85.475C76.4989 85.1268 76.4387 84.7561 76.4523 84.3844C76.4439 83.7561 76.6379 83.1418 77.0056 82.6322C77.4151 82.1127 77.9454 81.7011 78.5503 81.4334C79.2752 81.1132 80.0639 80.9633 80.8557 80.9954C81.8293 80.9382 82.7942 81.2058 83.5992 81.7562C84.2027 82.3119 84.6279 83.0339 84.8212 83.8311Z" fill="white" style="fill:white;fill:white;fill-opacity:1;"/>
<path d="M98.6081 93.1911C97.6239 93.2149 96.6543 92.9504 95.8185 92.4303C94.9966 91.9208 94.3399 91.1841 93.928 90.3093C93.4652 89.3137 93.2365 88.2254 93.2594 87.1277C93.2394 86.0229 93.4679 84.9278 93.928 83.9232C94.3525 83.0567 95.0063 82.3231 95.8185 81.8021C96.6543 81.282 97.6239 81.0175 98.6081 81.0413C99.5917 81.0215 100.56 81.2856 101.397 81.8021C102.197 82.3306 102.842 83.0628 103.265 83.9232C103.725 84.9278 103.953 86.0229 103.933 87.1277C103.956 88.2254 103.728 89.3137 103.265 90.3093C102.858 91.1849 102.206 91.9234 101.387 92.4351C100.569 92.9467 99.6194 93.2094 98.6542 93.1911H98.6081ZM98.6081 91.5773C99.321 91.605 100.021 91.385 100.59 90.9548C101.117 90.5251 101.516 89.9589 101.743 89.318C101.998 88.6163 102.123 87.8741 102.112 87.1277C102.121 86.3815 101.996 85.6397 101.743 84.9375C101.51 84.2998 101.112 83.7351 100.59 83.3006C100.029 82.8532 99.3252 82.624 98.6081 82.6551C97.8839 82.6246 97.1727 82.8535 96.6023 83.3006C96.0805 83.7351 95.6828 84.2998 95.4496 84.9375C95.1968 85.6397 95.0719 86.3815 95.0807 87.1277C95.0698 87.8741 95.1948 88.6163 95.4496 89.318C95.6766 89.9589 96.0754 90.5251 96.6023 90.9548C97.1803 91.385 97.888 91.6046 98.6081 91.5773Z" fill="white" style="fill:white;fill:white;fill-opacity:1;"/>
<path d="M111.91 81.2028V82.7244H105.57V81.2028H111.91ZM107.484 92.9607V79.4967C107.467 78.9024 107.628 78.3166 107.945 77.8137C108.266 77.374 108.694 77.0245 109.19 76.7993C109.694 76.5886 110.234 76.479 110.781 76.4766C111.365 76.4397 111.95 76.5424 112.487 76.7763L111.98 78.344H111.611C111.396 78.3163 111.179 78.3163 110.965 78.344C110.731 78.3215 110.495 78.3488 110.273 78.4244C110.05 78.4999 109.846 78.6218 109.674 78.7821C109.395 79.1701 109.257 79.6418 109.282 80.1192V93.076L107.484 92.9607Z" fill="white" style="fill:white;fill:white;fill-opacity:1;"/>
<path d="M120.763 92.9606V77.1912H126.066C127.111 77.1473 128.15 77.3694 129.086 77.8367C129.831 78.247 130.434 78.8741 130.815 79.635C131.211 80.4125 131.409 81.2757 131.392 82.148C131.406 83.02 131.208 83.8825 130.815 84.6609C130.442 85.4271 129.837 86.0562 129.086 86.4592C128.166 86.949 127.13 87.1801 126.089 87.1278H122.285V85.4448H126.02C126.723 85.4815 127.423 85.3303 128.049 85.0068C128.55 84.7573 128.949 84.3418 129.178 83.831C129.407 83.2993 129.524 82.7266 129.524 82.148C129.524 81.5693 129.407 80.9967 129.178 80.465C128.949 79.9542 128.55 79.5387 128.049 79.2892C127.409 78.9844 126.704 78.8419 125.997 78.8742H122.746V92.8684L120.763 92.9606Z" fill="white" style="fill:white;fill:white;fill-opacity:1;"/>
<path d="M135.38 97.3641C135.104 97.391 134.826 97.391 134.55 97.3641L134.043 97.2258L134.504 95.635C134.894 95.6876 135.29 95.6876 135.68 95.635C136.021 95.5963 136.338 95.4417 136.579 95.197C136.902 94.8106 137.145 94.3639 137.294 93.8828L137.639 92.9607L133.282 81.1567H135.242L138.492 90.5169L141.743 81.1567H143.703L138.884 94.6667C138.685 95.2172 138.397 95.7312 138.031 96.1883C137.727 96.5634 137.341 96.8633 136.902 97.0644C136.424 97.2782 135.903 97.3807 135.38 97.3641Z" fill="white" style="fill:white;fill:white;fill-opacity:1;"/>
<path d="M144.856 78.9664V77.1912H156.613V78.8743H151.68V92.8684H149.789V78.8743L144.856 78.9664Z" fill="white" style="fill:white;fill:white;fill-opacity:1;"/>
<path d="M162.377 93.1911C161.393 93.2109 160.425 92.9467 159.588 92.4303C158.766 91.9269 158.115 91.1878 157.72 90.3093C157.257 89.3137 157.029 88.2254 157.052 87.1277C157.032 86.0229 157.26 84.9278 157.72 83.9232C158.151 83.0696 158.81 82.3522 159.624 81.8511C160.438 81.3499 161.375 81.0845 162.331 81.0845C163.287 81.0845 164.224 81.3499 165.038 81.8511C165.852 82.3522 166.511 83.0696 166.942 83.9232C167.402 84.9278 167.631 86.0229 167.611 87.1277C167.633 88.2254 167.405 89.3137 166.942 90.3093C166.547 91.1878 165.896 91.9269 165.075 92.4303C164.264 92.9299 163.33 93.1934 162.377 93.1911ZM162.377 91.5773C163.091 91.6089 163.792 91.3885 164.36 90.9548C164.9 90.5377 165.302 89.9672 165.513 89.318C165.775 88.6178 165.908 87.8755 165.905 87.1277C165.906 86.3801 165.773 85.6382 165.513 84.9375C165.297 84.2908 164.896 83.7216 164.36 83.3006C163.784 82.8809 163.09 82.6548 162.377 82.6548C161.665 82.6548 160.97 82.8809 160.394 83.3006C159.858 83.7216 159.457 84.2908 159.242 84.9375C158.981 85.6382 158.848 86.3801 158.85 87.1277C158.846 87.8755 158.979 88.6178 159.242 89.318C159.452 89.9672 159.854 90.5377 160.394 90.9548C160.962 91.3885 161.664 91.6089 162.377 91.5773Z" fill="white" style="fill:white;fill:white;fill-opacity:1;"/>
<path d="M170.469 92.9606V81.2026H172.198V82.9779H172.337C172.549 82.385 172.955 81.8812 173.49 81.5485C174.057 81.1964 174.712 81.0125 175.38 81.0182H176.348V82.8626H175.242C174.712 82.8588 174.189 82.9855 173.72 83.2315C173.281 83.4453 172.912 83.7816 172.66 84.1998C172.399 84.6308 172.263 85.1256 172.268 85.6292V93.0759L170.469 92.9606Z" fill="white" style="fill:white;fill:white;fill-opacity:1;"/>
<path d="M182.896 93.1911C181.886 93.2203 180.891 92.9474 180.037 92.4073C179.234 91.8855 178.601 91.1402 178.216 90.2632C177.765 89.2805 177.545 88.2083 177.57 87.1277C177.541 86.0369 177.77 84.9546 178.239 83.9692C178.632 83.0906 179.273 82.3456 180.083 81.8251C180.912 81.2879 181.885 81.0146 182.873 81.0413C183.666 81.0197 184.454 81.1773 185.178 81.5023C185.825 81.7855 186.389 82.2301 186.815 82.7934C187.248 83.3466 187.519 84.009 187.599 84.707H185.801C185.648 84.1532 185.326 83.6613 184.879 83.3006C184.357 82.8472 183.678 82.6155 182.988 82.6551C182.33 82.6399 181.685 82.8336 181.144 83.2084C180.594 83.5982 180.163 84.1329 179.899 84.7531C179.592 85.482 179.442 86.2677 179.461 87.0585C179.451 87.8486 179.6 88.6326 179.899 89.364C180.152 89.9904 180.575 90.5334 181.121 90.9317C181.579 91.2336 182.105 91.4187 182.651 91.4709C183.198 91.5232 183.749 91.441 184.256 91.2314C184.634 91.0775 184.973 90.8412 185.247 90.5398C185.508 90.2142 185.697 89.837 185.801 89.4332H187.599C187.51 90.1067 187.256 90.7479 186.861 91.3006C186.442 91.8578 185.897 92.3081 185.27 92.6147C184.537 92.9958 183.722 93.1935 182.896 93.1911Z" fill="white" style="fill:white;fill:white;fill-opacity:1;"/>
<path d="M191.91 85.8829V92.9607H190.112V77.1912H191.91V82.9319H192.072C192.333 82.3419 192.757 81.8382 193.294 81.4794C193.997 81.09 194.796 80.9063 195.599 80.9492C196.328 80.9345 197.048 81.1008 197.697 81.4333C198.301 81.7654 198.791 82.2715 199.103 82.8858C199.46 83.6745 199.633 84.5335 199.61 85.3987V92.8684H197.789V85.514C197.846 84.7256 197.589 83.9468 197.075 83.3469C196.814 83.0832 196.5 82.8771 196.155 82.7421C195.809 82.6071 195.439 82.546 195.069 82.563C194.514 82.5557 193.966 82.6906 193.478 82.9549C193.013 83.2034 192.63 83.5793 192.371 84.0385C192.06 84.6028 191.901 85.2385 191.91 85.8829Z" fill="white" style="fill:white;fill:white;fill-opacity:1;"/>
<path d="M209.201 92.9607V77.1912H211.092V91.1855H218.377V92.8684L209.201 92.9607Z" fill="white" style="fill:white;fill:white;fill-opacity:1;"/>
<path d="M221.997 79.2433C221.83 79.2439 221.665 79.2116 221.51 79.1483C221.356 79.0851 221.216 78.992 221.098 78.8744C220.971 78.7718 220.87 78.6415 220.802 78.4935C220.734 78.3456 220.701 78.184 220.706 78.0213C220.699 77.855 220.731 77.6894 220.799 77.5375C220.867 77.3856 220.969 77.2514 221.098 77.1453C221.216 77.0277 221.356 76.9345 221.51 76.8712C221.665 76.8079 221.83 76.7757 221.997 76.7764C222.333 76.7799 222.654 76.9119 222.896 77.1453C223.02 77.2546 223.12 77.3894 223.187 77.5405C223.255 77.6917 223.289 77.8557 223.288 78.0213C223.286 78.183 223.25 78.3426 223.183 78.4895C223.115 78.6365 223.017 78.7676 222.896 78.8744C222.654 79.1077 222.333 79.2397 221.997 79.2433ZM221.074 92.9608V81.2029H222.873V92.9608H221.074Z" fill="white" style="fill:white;fill:white;fill-opacity:1;"/>
<path d="M230.942 97.6177C230.159 97.6413 229.378 97.5242 228.636 97.2719C228.06 97.0889 227.527 96.7908 227.069 96.3958C226.677 96.0691 226.342 95.6795 226.077 95.2431L227.507 94.2287L228.129 94.9664C228.418 95.2838 228.772 95.5354 229.167 95.7042C229.713 95.9369 230.303 96.0471 230.896 96.027C231.718 96.0488 232.526 95.8063 233.201 95.3353C233.516 95.0731 233.763 94.7399 233.924 94.363C234.084 93.9862 234.153 93.5766 234.123 93.1682V90.8627H233.962C233.824 91.0932 233.639 91.3469 233.409 91.6696C233.055 92.0799 232.61 92.402 232.11 92.6101C231.609 92.8182 231.067 92.9067 230.527 92.8684C229.632 92.8888 228.751 92.6486 227.991 92.1768C227.215 91.7206 226.59 91.0474 226.193 90.2402C225.735 89.26 225.514 88.186 225.547 87.1048C225.523 86.0193 225.736 84.9416 226.17 83.9463C226.56 83.1054 227.174 82.3877 227.945 81.8714C228.731 81.376 229.644 81.1197 230.573 81.1336C231.2 81.114 231.824 81.2403 232.394 81.5025C232.797 81.7199 233.15 82.0182 233.432 82.3786C233.641 82.6218 233.826 82.8842 233.985 83.1624H234.17V81.295H235.922V93.3296C235.964 94.205 235.721 95.0704 235.23 95.7964C234.782 96.441 234.146 96.9319 233.409 97.2027C232.618 97.486 231.782 97.6265 230.942 97.6177ZM230.942 91.1393C231.59 91.1578 232.23 90.9898 232.786 90.6552C233.293 90.2981 233.686 89.8016 233.916 89.2258C234.197 88.4907 234.33 87.7072 234.308 86.9204C234.335 86.1332 234.202 85.3489 233.916 84.6149C233.695 84.0087 233.303 83.4799 232.786 83.0933C232.25 82.7094 231.601 82.5148 230.942 82.54C230.255 82.5197 229.581 82.7307 229.028 83.1393C228.511 83.535 228.119 84.0713 227.899 84.684C227.634 85.3837 227.501 86.1263 227.507 86.8743C227.497 87.6076 227.63 88.3359 227.899 89.0183C228.125 89.6342 228.542 90.1614 229.09 90.5224C229.638 90.8835 230.287 91.0593 230.942 91.0241V91.1393Z" fill="white" style="fill:white;fill:white;fill-opacity:1;"/>
<path d="M241.132 85.8829V92.9607H239.334V77.1912H241.132V82.9319H241.293C241.556 82.3353 241.989 81.8299 242.538 81.4794C243.239 81.0814 244.04 80.8972 244.844 80.9492C245.573 80.9345 246.293 81.1008 246.942 81.4333C247.546 81.7654 248.036 82.2715 248.348 82.8858C248.705 83.6745 248.878 84.5335 248.855 85.3987V92.8684H247.034V85.514C247.091 84.7256 246.834 83.9468 246.319 83.3469C246.058 83.0832 245.745 82.8771 245.4 82.7421C245.054 82.6071 244.684 82.546 244.314 82.563C243.759 82.5557 243.211 82.6906 242.723 82.9549C242.258 83.2034 241.874 83.5793 241.616 84.0385C241.297 84.6006 241.13 85.2364 241.132 85.8829Z" fill="white" style="fill:white;fill:white;fill-opacity:1;"/>
<path d="M257.178 81.2028V82.7245H251.092V81.2028H257.178ZM252.867 78.3672H254.665V89.5948C254.636 89.9854 254.716 90.3764 254.896 90.7245C255.021 90.9569 255.226 91.1368 255.472 91.2317C255.715 91.3261 255.973 91.3731 256.233 91.37H257.017L257.386 92.9838L256.878 93.1222C256.602 93.149 256.324 93.149 256.048 93.1222C255.531 93.1288 255.019 93.0185 254.55 92.7994C254.062 92.5836 253.64 92.2414 253.328 91.808C253.001 91.301 252.84 90.7048 252.867 90.102V78.3672Z" fill="white" style="fill:white;fill:white;fill-opacity:1;"/>
<path d="M261.697 85.8828V92.9607H259.899V81.2027H261.651V83.0241H261.789C262.069 82.438 262.509 81.9426 263.057 81.5947C263.709 81.2012 264.463 81.0087 265.224 81.0414C265.953 81.0238 266.675 81.1903 267.322 81.5255C267.932 81.8538 268.417 82.3718 268.705 83.001C269.076 83.777 269.25 84.632 269.213 85.4909V92.9607H267.391V85.6062C267.441 84.8188 267.185 84.0426 266.677 83.439C266.424 83.1777 266.118 82.9729 265.781 82.8378C265.443 82.7027 265.08 82.6405 264.717 82.6552C264.177 82.6474 263.644 82.7827 263.172 83.0472C262.715 83.2971 262.339 83.6732 262.089 84.1307C261.817 84.6739 261.682 85.2755 261.697 85.8828Z" fill="white" style="fill:white;fill:white;fill-opacity:1;"/>
<path d="M273.432 79.2432C273.096 79.2396 272.774 79.1076 272.533 78.8743C272.411 78.7675 272.313 78.6364 272.246 78.4894C272.178 78.3425 272.143 78.1829 272.141 78.0212C272.154 77.858 272.202 77.6997 272.282 77.5565C272.361 77.4134 272.47 77.2889 272.602 77.1913C272.843 76.9575 273.165 76.8267 273.501 76.8267C273.837 76.8267 274.159 76.9575 274.4 77.1913C274.524 77.3006 274.624 77.4354 274.692 77.5866C274.759 77.7378 274.793 77.9017 274.792 78.0673C274.79 78.2291 274.754 78.3886 274.687 78.5356C274.619 78.6825 274.522 78.8136 274.4 78.9204C274.268 79.036 274.115 79.1242 273.949 79.1796C273.782 79.2351 273.606 79.2567 273.432 79.2432ZM272.51 92.9607V81.2027H274.331V92.9607H272.51Z" fill="white" style="fill:white;fill:white;fill-opacity:1;"/>
<path d="M279.518 85.8828V92.9607H277.72V81.2027H279.472V83.0241H279.518C279.79 82.4329 280.232 81.9355 280.786 81.5947C281.438 81.2012 282.192 81.0087 282.953 81.0414C283.682 81.0238 284.404 81.1903 285.051 81.5255C285.661 81.8538 286.146 82.3718 286.435 83.001C286.805 83.777 286.979 84.632 286.942 85.4909V92.9607H285.12V85.6062C285.17 84.8188 284.914 84.0426 284.406 83.439C284.153 83.1777 283.847 82.9729 283.51 82.8378C283.172 82.7027 282.81 82.6405 282.446 82.6552C281.905 82.6452 281.372 82.7806 280.901 83.0472C280.444 83.2971 280.068 83.6732 279.818 84.1307C279.578 84.6819 279.475 85.2831 279.518 85.8828Z" fill="white" style="fill:white;fill:white;fill-opacity:1;"/>
<path d="M294.988 97.6177C294.205 97.6393 293.425 97.5223 292.682 97.2719C292.113 97.089 291.587 96.7908 291.138 96.3958C290.739 96.0691 290.397 95.6798 290.123 95.2431L291.576 94.2287C291.767 94.4876 291.975 94.734 292.198 94.9664C292.483 95.2787 292.828 95.5297 293.213 95.7042C293.759 95.9369 294.349 96.0471 294.942 96.027C295.764 96.0488 296.572 95.8063 297.247 95.3353C297.565 95.0756 297.815 94.7428 297.975 94.3653C298.136 93.9879 298.202 93.5771 298.169 93.1682V90.8627H298.031C297.856 91.1432 297.663 91.4127 297.455 91.6696C297.169 92.0143 296.816 92.2968 296.417 92.4996C295.851 92.7731 295.224 92.8999 294.596 92.8685C293.695 92.8805 292.809 92.641 292.037 92.1768C291.27 91.7171 290.653 91.0443 290.262 90.2403C289.796 89.2619 289.567 88.1879 289.593 87.1048C289.565 86.0165 289.786 84.9362 290.239 83.9463C290.621 83.1 291.237 82.3803 292.014 81.8714C292.789 81.3703 293.696 81.1133 294.619 81.1336C295.247 81.1114 295.871 81.2378 296.44 81.5025C296.847 81.7133 297.202 82.0127 297.478 82.3786C297.685 82.6282 297.878 82.8899 298.054 83.1624H298.239V81.295H299.991V93.3296C300.033 94.205 299.79 95.0704 299.299 95.7964C298.836 96.4366 298.195 96.9258 297.455 97.2028C296.665 97.4899 295.829 97.6305 294.988 97.6177ZM294.988 91.1393C295.637 91.1618 296.278 90.9935 296.832 90.6552C297.346 90.2994 297.746 89.8032 297.985 89.2258C298.258 88.489 298.383 87.7056 298.354 86.9204C298.376 86.1356 298.251 85.3535 297.985 84.6149C297.756 84.013 297.365 83.4863 296.855 83.0933C296.309 82.7123 295.654 82.5182 294.988 82.54C294.308 82.5195 293.641 82.7308 293.097 83.1394C292.567 83.5269 292.165 84.0652 291.945 84.6841C291.688 85.3852 291.563 86.1277 291.576 86.8743C291.559 87.6061 291.684 88.3343 291.945 89.0184C292.176 89.6126 292.577 90.1257 293.097 90.4938C293.622 90.894 294.259 91.1197 294.919 91.1393H294.988Z" fill="white" style="fill:white;fill:white;fill-opacity:1;"/>
<path d="M13.2748 82.265H11.3959C11.2848 81.7246 11.0904 81.2498 10.8126 80.8407C10.5398 80.4316 10.2065 80.0881 9.81251 79.8103C9.4236 79.5275 8.99175 79.3153 8.51697 79.1739C8.04219 79.0325 7.54721 78.9618 7.03203 78.9618C6.09257 78.9618 5.24151 79.1992 4.47883 79.674C3.72121 80.1487 3.11764 80.8483 2.66811 81.7726C2.22364 82.6969 2.0014 83.8308 2.0014 85.1743C2.0014 86.5178 2.22364 87.6517 2.66811 88.576C3.11764 89.5003 3.72121 90.1999 4.47883 90.6747C5.24151 91.1494 6.09257 91.3868 7.03203 91.3868C7.54721 91.3868 8.04219 91.3161 8.51697 91.1747C8.99175 91.0333 9.4236 90.8237 9.81251 90.5459C10.2065 90.263 10.5398 89.917 10.8126 89.5079C11.0904 89.0938 11.2848 88.619 11.3959 88.0836H13.2748C13.1334 88.8766 12.8758 89.5862 12.5021 90.2125C12.1283 90.8388 11.6636 91.3717 11.108 91.8111C10.5524 92.2455 9.92868 92.5763 9.23672 92.8036C8.5498 93.0309 7.81491 93.1445 7.03203 93.1445C5.70871 93.1445 4.53187 92.8213 3.5015 92.1748C2.47113 91.5283 1.66047 90.609 1.06952 89.417C0.478579 88.225 0.183105 86.8108 0.183105 85.1743C0.183105 83.5378 0.478579 82.1236 1.06952 80.9316C1.66047 79.7396 2.47113 78.8204 3.5015 78.1739C4.53187 77.5274 5.70871 77.2041 7.03203 77.2041C7.81491 77.2041 8.5498 77.3177 9.23672 77.545C9.92868 77.7723 10.5524 78.1057 11.108 78.5451C11.6636 78.9795 12.1283 79.5098 12.5021 80.1361C12.8758 80.7574 13.1334 81.467 13.2748 82.265Z" fill="white" style="fill:white;fill:white;fill-opacity:1;"/>
<mask id="mask0_1581_26661" style="mask-type:luminance" maskUnits="userSpaceOnUse" x="78" y="20" width="223" height="42">
<path d="M78.3628 20.6343H300.003V61.3071H78.3628V20.6343Z" fill="white" style="fill:white;fill:white;fill-opacity:1;"/>
</mask>
<g mask="url(#mask0_1581_26661)">
<path fill-rule="evenodd" clip-rule="evenodd" d="M146.766 30.5686C145.534 30.5372 144.315 30.8246 143.227 31.4028C142.487 31.7836 141.806 32.2688 141.204 32.8437V21.6707H136.149V52.3332H141.204V40.4271C141.142 39.1128 141.575 37.823 142.418 36.8123C142.827 36.3603 143.333 36.0054 143.897 35.7736C144.461 35.5418 145.07 35.439 145.679 35.4726C146.271 35.4326 146.865 35.5305 147.413 35.7586C147.961 35.9867 148.449 36.3387 148.839 36.7871C149.591 37.7037 149.987 38.8623 149.951 40.048V52.3332H155.006V39.4666C155.075 38.2736 154.906 37.0788 154.512 35.951C154.117 34.8231 153.503 33.7843 152.706 32.8942C151.922 32.1289 150.992 31.5287 149.972 31.1293C148.951 30.7298 147.861 30.5391 146.766 30.5686Z" fill="white" style="fill:white;fill:white;fill-opacity:1;"/>
<path fill-rule="evenodd" clip-rule="evenodd" d="M126.391 32.6416C125.721 32.0854 124.982 31.6181 124.192 31.2513C123.118 30.7765 121.953 30.5435 120.78 30.5687C119.361 30.563 117.957 30.8559 116.659 31.4282C115.415 31.9806 114.29 32.7706 113.348 33.7538C112.42 34.7485 111.699 35.9169 111.224 37.1917C110.648 38.5256 110.338 39.96 110.314 41.4131C110.357 42.8396 110.666 44.2455 111.224 45.5588C111.684 46.8182 112.369 47.9832 113.247 48.9966C114.188 49.9989 115.323 50.7988 116.583 51.3475C117.907 51.9223 119.336 52.215 120.78 52.207C122.817 52.2419 124.803 51.5622 126.391 50.2858V51.5244C126.463 52.1885 126.388 52.8602 126.173 53.4923C125.957 54.1244 125.606 54.7016 125.143 55.1835C124.681 55.6653 124.118 56.04 123.495 56.2813C122.873 56.5225 122.204 56.6245 121.538 56.5801C120.428 56.6245 119.324 56.3898 118.328 55.8976C117.492 55.4133 116.829 54.6796 116.432 53.7995V53.6225H110.997C111.122 55.1564 111.703 56.6179 112.665 57.8187C113.794 58.9995 115.177 59.9072 116.71 60.473C118.223 61.0351 119.823 61.3261 121.437 61.3324C122.777 61.4243 124.123 61.2482 125.395 60.8141C126.666 60.3801 127.839 59.6969 128.843 58.8046C129.736 57.9007 130.429 56.8193 130.878 55.6306C131.327 54.4418 131.52 53.1721 131.447 51.9036V30.9479H126.391V32.6416ZM125.128 45.584C124.617 46.1425 123.998 46.5899 123.307 46.8985C122.616 47.2045 121.864 47.3513 121.108 47.3282C120.361 47.3475 119.618 47.2008 118.934 46.8985C118.24 46.5965 117.619 46.1481 117.114 45.584C116.077 44.444 115.508 42.9544 115.522 41.4131C115.495 40.6429 115.621 39.875 115.895 39.1544C116.168 38.4338 116.583 37.7751 117.114 37.2169C117.62 36.6662 118.242 36.2346 118.934 35.953C119.624 35.6707 120.364 35.533 121.108 35.5486C121.855 35.5395 122.595 35.6859 123.282 35.9783C123.966 36.2652 124.585 36.6864 125.102 37.2169C125.635 37.7715 126.056 38.4238 126.341 39.1381C126.636 39.8591 126.774 40.6347 126.745 41.4131C126.752 42.9578 126.174 44.4479 125.128 45.584Z" fill="white" style="fill:white;fill:white;fill-opacity:1;"/>
<path fill-rule="evenodd" clip-rule="evenodd" d="M166.584 23.8447L161.781 25.5889V30.9226H157.332V35.5233H161.452V45.2302C161.389 46.2248 161.546 47.2212 161.913 48.1477C162.28 49.0743 162.848 49.9081 163.576 50.5891C164.982 51.7925 166.781 52.4399 168.631 52.4092H170.072H171.159H171.437V47.7833H169.364C168.987 47.8096 168.609 47.7579 168.252 47.6316C167.908 47.4837 167.592 47.2785 167.317 47.0249C167.036 46.7154 166.822 46.3516 166.687 45.9559C166.552 45.5603 166.5 45.1412 166.533 44.7246V35.5233H172.145V30.9226H166.584V23.8447Z" fill="white" style="fill:white;fill:white;fill-opacity:1;"/>
<path d="M106.447 30.9478H101.315V52.3332H106.447V30.9478Z" fill="white" style="fill:white;fill:white;fill-opacity:1;"/>
<path d="M181.7 36.1299H176.569V52.5355H181.7V36.1299Z" fill="white" style="fill:white;fill:white;fill-opacity:1;"/>
<path d="M106.422 21.696H101.29V26.9034H106.422V21.696Z" fill="white" style="fill:white;fill:white;fill-opacity:1;"/>
<path fill-rule="evenodd" clip-rule="evenodd" d="M83.6712 21.696H78.3628V52.3586H97.2204V47.2777H83.6712V21.696Z" fill="white" style="fill:white;fill:white;fill-opacity:1;"/>
<path fill-rule="evenodd" clip-rule="evenodd" d="M221.488 30.8972H216.433V36.1298H220.401C221.031 36.1308 221.655 36.2563 222.236 36.4993C222.818 36.7422 223.345 37.0978 223.789 37.5454C224.671 38.4739 225.168 39.7026 225.179 40.9833V52.5101H230.235V39.871C230.248 37.523 229.34 35.2633 227.707 33.5767C226.903 32.7358 225.938 32.0652 224.87 31.6048C223.802 31.1445 222.652 30.9039 221.488 30.8972Z" fill="white" style="fill:white;fill:white;fill-opacity:1;"/>
<path d="M216.357 36.1299H211.225V52.5355H216.357V36.1299Z" fill="white" style="fill:white;fill:white;fill-opacity:1;"/>
<path fill-rule="evenodd" clip-rule="evenodd" d="M186.832 30.8972H181.776V36.1298H185.745C186.371 36.1285 186.992 36.2531 187.57 36.4963C188.147 36.7395 188.67 37.0962 189.107 37.5454C189.554 37.9985 189.907 38.5355 190.145 39.1255C190.384 39.7155 190.503 40.3469 190.497 40.9833V52.5101H195.553V39.871C195.566 37.523 194.659 35.2633 193.025 33.5767C192.224 32.7388 191.263 32.07 190.2 31.6097C189.136 31.1495 187.991 30.9072 186.832 30.8972Z" fill="white" style="fill:white;fill:white;fill-opacity:1;"/>
<path fill-rule="evenodd" clip-rule="evenodd" d="M249.851 32.6162C249.201 32.0907 248.487 31.649 247.727 31.3017C246.661 30.828 245.506 30.5867 244.34 30.5939C242.922 30.5984 241.521 30.8908 240.22 31.4534C238.967 32.0057 237.834 32.7955 236.883 33.779C235.928 34.7717 235.173 35.9389 234.658 37.2168C234.103 38.5467 233.811 39.9718 233.799 41.413C233.779 42.858 234.046 44.2927 234.582 45.6345C235.077 46.8823 235.806 48.0236 236.731 48.9965C237.665 50.0844 238.831 50.9484 240.144 51.5243C241.473 52.1107 242.913 52.4039 244.365 52.3838C245.532 52.3268 246.676 52.0344 247.727 51.5243C248.524 51.1914 249.265 50.7397 249.926 50.1846V51.5243C250.003 52.1893 249.931 52.8629 249.717 53.497C249.503 54.1312 249.152 54.7103 248.688 55.1932C248.225 55.676 247.66 56.0506 247.035 56.2903C246.411 56.5301 245.74 56.629 245.073 56.58C243.962 56.6276 242.858 56.3928 241.863 55.8975C241.027 55.4131 240.364 54.6795 239.967 53.7994V53.6224H234.456C234.643 55.1411 235.218 56.5861 236.124 57.8186C237.249 58.987 238.623 59.8858 240.144 60.4476C241.662 61.0217 243.273 61.313 244.896 61.307C246.232 61.3955 247.573 61.2177 248.84 60.7837C250.107 60.3498 251.276 59.6684 252.277 58.7792C253.144 57.8758 253.816 56.8037 254.251 55.6295C254.686 54.4554 254.875 53.2043 254.805 51.9541V30.8972H249.749L249.851 32.6162ZM248.587 45.5587C248.09 46.1323 247.467 46.5824 246.767 46.8731C246.079 47.1915 245.324 47.3389 244.567 47.3029C243.82 47.3221 243.077 47.1754 242.393 46.8731C241.699 46.5711 241.078 46.1227 240.573 45.5587C239.552 44.4186 238.986 42.9434 238.981 41.413C238.934 39.8584 239.507 38.349 240.573 37.2168C241.097 36.6869 241.714 36.2584 242.393 35.9529C243.086 35.6826 243.824 35.5454 244.567 35.5485C245.313 35.5516 246.051 35.6975 246.741 35.9782C247.425 36.265 248.044 36.6863 248.561 37.2168C249.102 37.7704 249.531 38.4226 249.825 39.138C250.12 39.8598 250.266 40.6335 250.255 41.413C250.242 42.9558 249.646 44.4366 248.587 45.5587Z" fill="white" style="fill:white;fill:white;fill-opacity:1;"/>
<path d="M205.791 21.6707H200.659V26.9033H205.791V21.6707Z" fill="white" style="fill:white;fill:white;fill-opacity:1;"/>
<path d="M205.791 30.9226H200.659V52.3333H205.791V30.9226Z" fill="white" style="fill:white;fill:white;fill-opacity:1;"/>
<path fill-rule="evenodd" clip-rule="evenodd" d="M272.197 20.6343L267.318 35.8012H271.919L272.601 33.2734H279.249L279.957 35.8012H284.684L279.78 20.6343H272.197ZM273.764 29.2289L274.977 24.8305H276.873L278.086 29.2289H273.764Z" fill="white" style="fill:white;fill:white;fill-opacity:1;"/>
<path fill-rule="evenodd" clip-rule="evenodd" d="M300.003 24.8305V20.6343H286.807V24.8305H291.282V31.6809H286.807V35.9024H300.003V31.6809H295.528V24.8305H300.003Z" fill="white" style="fill:white;fill:white;fill-opacity:1;"/>
</g>
</g>
<defs>
<linearGradient id="paint0_linear_1581_26661" x1="34.5723" y1="29.2886" x2="-48.1881" y2="93.3304" gradientUnits="userSpaceOnUse">
<stop stop-color="#BB8BFF" style="stop-color:#BB8BFF;stop-color:color(display-p3 0.7333 0.5451 1.0000);stop-opacity:1;"/>
<stop offset="1" stop-color="#75F6FF" style="stop-color:#75F6FF;stop-color:color(display-p3 0.4588 0.9647 1.0000);stop-opacity:1;"/>
</linearGradient>
<clipPath id="clip0_1581_26661">
<rect width="301" height="100" fill="white" style="fill:white;fill:white;fill-opacity:1;"/>
</clipPath>
</defs>
</svg>
