<svg width="1458" height="473" viewBox="0 0 1458 473" fill="none" xmlns="http://www.w3.org/2000/svg">
<g clip-path="url(#clip0_113_2)">
<path d="M526.9 47.1201C529.33 38.4501 533.36 33.6901 540.8 33.6901C556.08 33.6901 556.19 33.4401 566.8 33.6901C572.2 33.8201 580.55 33.6901 578.36 41.7701C577.17 46.1301 569.66 69.0801 568.36 73.4201C561.85 94.5701 561.77 95.2201 555.55 116.42C552.71 126.15 552.12 129.36 566.34 129.36C578.72 129.36 591.1 129.8 603.49 130.01C612.62 130.18 616.61 135.84 613.44 144.17C612.1 147.72 611.12 151.45 609.44 154.81C605.04 163.55 601.77 167.44 593.23 167.74C578.8 168.25 564.37 168.48 549.94 168.87C541.43 169.09 537.8 169.67 534.36 181.67C525.7 211.83 516.36 242.22 518.7 273.36C518.978 276.491 519.9 279.531 521.41 282.289C522.919 285.047 524.982 287.462 527.47 289.384C529.958 291.305 532.817 292.692 535.866 293.455C538.916 294.218 542.09 294.343 545.19 293.82C546.368 293.633 547.526 293.339 548.65 292.94C559.05 289.22 564.93 286.42 576.89 275.94C585.266 268.345 592.833 259.904 599.47 250.75C608.47 238.75 619.03 227.03 624.11 213.06C629.68 197.78 633.83 187.74 639 177.92C657 143.73 687.47 126.72 713.33 122.53C735.13 119.01 756.13 124.01 771.44 132.98C781.29 138.75 796.38 156.56 796.82 175.03C797.22 185.93 797.7 197.47 783.15 198.23C775.53 198.59 767.87 198.4 760.24 198.09C754.31 197.85 750.18 195.32 750.18 188.85C750.18 176.01 740.03 170.92 727.09 169.26C663.09 161.01 650.3 241.88 673.09 273.01C706.09 318.01 770.71 289.19 794.09 270.12C817.93 250.7 826.97 237.04 842.09 196.35C844.77 189.11 846.68 181.43 848.98 173.95C858.47 141.85 868.87 110.01 879.28 78.1801C884.07 62.5501 888.22 46.7501 892.82 31.0701C894.87 24.0701 896.34 16.6501 900 10.4701C902.23 6.69009 907.88 3.26008 912.45 2.61008C921.21 1.38008 930.3 2.05008 939.23 2.30008C945.57 2.48008 950.11 8.04009 948.39 13.3901C933 59.0001 919 105.09 905.2 151.21C905.113 151.844 905.143 152.488 905.29 153.11C914.59 146.44 923.44 138.81 933.5 133.11C969.5 112.54 1024.13 123.47 1026.94 170.16C1027.41 192.44 1020.22 212.51 1012.65 233.86C1009.07 243.98 1001.31 264.43 998.72 280.25C996.31 294.93 1011.15 295.58 1019.89 291.97C1027.41 288.87 1038.53 280.59 1043.95 274.85C1053.95 264.26 1057.65 260.85 1066.59 249.36C1071.41 243.17 1077.92 232.42 1081.59 225.62C1084.81 219.71 1094.59 189.03 1096.59 182.56C1113.21 129.21 1117.67 111.69 1131.06 65.3101C1135.53 49.8501 1140.9 34.6201 1145.06 19.0901C1148 8.67008 1155 2.32008 1166.08 2.18008C1172.49 2.10008 1178.9 2.12008 1185.82 2.13008C1192.99 2.13008 1198.45 8.49009 1196.92 15.2201C1196.92 15.28 1196.92 15.3402 1196.92 15.4001C1193.99 27.6101 1190.7 39.7601 1186.92 51.7501C1183.14 63.7401 1179.5 75.7501 1175.8 87.7501C1170.02 106.96 1163.67 125.92 1157.7 145.12C1146.16 182.22 1135.89 217.95 1128.7 255.35C1127.21 263.4 1125.79 272.57 1128.83 280.21C1132.29 288.93 1138.98 293.21 1149.1 291.98C1179.48 288.35 1198.16 260.17 1210.58 237.64C1225.04 211.42 1228.43 199.38 1234.88 179.29C1238.88 166.83 1243.44 154.54 1247.88 142.2C1250.81 134.01 1256.71 128.82 1266.08 128.92C1274.77 129.02 1283.46 128.75 1292.15 128.73C1301.21 128.73 1304.34 134.73 1301.32 142.56C1297.06 153.65 1293.69 165.05 1289.72 176.24C1285.75 187.43 1281.02 198.35 1277.55 209.66C1273.95 221.39 1270.09 233.18 1268.31 245.28C1266.64 256.59 1266.65 262.97 1269.68 271.21C1271.16 275.21 1275.47 279.27 1279.57 281.21C1291.57 286.78 1315.19 282.07 1325.57 271.08C1335.95 260.09 1342.77 244.62 1347.13 235.37C1354.13 220.37 1361.58 202.37 1363.9 196.67C1373.23 173.67 1380.23 157.11 1386.05 138.67C1388.42 131.12 1390.97 129.47 1400.37 129.46H1426.18C1435.12 129.46 1437.4 133.91 1434.91 141.22C1425.71 168.28 1416.12 195.22 1407.28 222.39C1397.28 253.39 1389.57 285.02 1377.28 315.29C1376.68 317.02 1376.1 319.09 1378.21 321.04C1379.39 322.14 1383.04 321.88 1384.34 320.81C1394.87 312.16 1405.5 303.56 1415.34 294.17C1422.75 287.08 1427.5 282.86 1434.92 275.73C1439.75 271.1 1446.49 267.66 1453.6 273.98C1459.04 278.82 1457.27 284.41 1454.6 286.66C1422.04 314.34 1409.17 325.16 1377.81 353.46C1368.51 361.85 1361.36 365.66 1356.42 375.98C1346.73 396.26 1336.13 416.44 1323.17 434.9C1304.49 461.5 1276.47 473.45 1243.27 472.37C1223.8 471.74 1207 464.3 1196.27 447.63C1177.7 411.63 1196.48 376.78 1229.81 362.02C1255.41 350.36 1282.91 344.75 1310.81 340.87C1315.89 340.16 1318.21 338.08 1320.12 332.62C1323.12 324.09 1324.12 317.85 1326.59 308.91C1274.29 349.91 1219.72 326.11 1212.18 282.68C1193.38 304.73 1178.33 327.55 1148.9 337.11C1127.67 344 1110.9 337.89 1098.63 330.25C1088.73 324.06 1081.82 311.91 1078.76 304.25C1075.7 296.59 1074.63 282.14 1075.55 280.86C1058.55 304.53 1045.11 338.22 1008.55 338.22C947.07 338.22 943.07 301.07 947.3 281.33C951.3 262.46 958.95 239.93 964.66 221.19C968.66 207.97 971.05 199.44 972.47 188.3C974.47 172.59 960.2 167.77 946.21 170.57C896.35 181.82 866.53 277.07 855.33 320.45C852.07 333.07 843.53 336.45 835.79 337.24C826.089 338.1 816.331 338.1 806.63 337.24C801.63 336.84 798.48 332.89 799.87 327.43C801.87 319.43 807.18 307.56 809.28 299.89C799.49 309.56 777 323.89 747.56 331.45C724.56 337.38 700.07 341.04 671.56 329.51C657.93 324.01 644.07 314.04 636.28 303.62C628.548 292.904 622.704 280.945 619 268.26C594.51 301.26 564.88 342.65 516.37 340.59C494.29 339.92 477.52 328.83 469.04 309.28C466.04 302.34 465.38 294.46 464.52 286.61C464.428 285.999 464.16 285.428 463.751 284.966C463.341 284.504 462.806 284.17 462.211 284.005C461.615 283.841 460.985 283.851 460.396 284.037C459.807 284.222 459.284 284.574 458.89 285.05C458.313 285.755 457.692 286.423 457.03 287.05C442.33 300.65 428.85 315.62 410.41 325.05C376.85 342.15 341.92 346.05 306.08 333.45C290.27 327.83 278 317 268.92 303C252.3 277.48 251.84 250 255.92 221.38C258.2 205.039 263.798 189.338 272.37 175.24C287.37 150.47 303.58 137.56 328.61 129.7C370.07 114.51 427.61 123.7 430.89 174.63C432.64 195.18 424.89 212.63 409.2 226.72C383.29 250.37 352.89 256.43 318.62 260.03C310.78 261.14 306.04 263.97 312.44 274.97C320.32 288.5 335.8 294.65 351.44 295.47C371.11 296.47 382.29 293.54 393.01 287.97C418.01 274.97 436.89 264.35 453.18 245.02C463.55 232.7 473.54 219.96 478.45 204.53C481.344 195.371 483.722 186.056 485.57 176.63C487.25 168.14 484.28 168.03 477.9 167.72C473.14 167.49 471.54 167.49 465.35 167.28C457.07 166.99 455.26 166.33 457.03 160.61C459.73 151.87 463.5 144.32 466.45 134.72C468.32 128.67 469.9 129.72 483.64 129.8C502.54 129.93 502.15 127.97 506.41 113.93M381.84 191.83C382.94 177.38 376.92 169.36 361.01 169.22C331.27 168.11 312.7 197.33 307.23 217.64C306.79 219.29 306.23 221.64 305.96 223.13C304.55 229.6 312.42 230.64 314.6 230.44C344.81 228.05 380.07 215 381.84 191.83ZM1246.7 430.1C1252.96 430.32 1261.17 430.1 1269.07 423.67C1274.63 419.264 1279.66 414.231 1284.07 408.67C1290.53 400.114 1296.51 391.211 1302 382C1303.24 379.95 1304.91 377.56 1301.43 373.85C1300.35 372.7 1296.32 372.24 1294.05 372.92C1279.56 377.27 1265.05 381.58 1250.87 386.8C1242.8 389.8 1237.35 393.39 1232.28 403.12C1226.07 415 1230 429.49 1246.7 430.1Z" fill="white"/>
<path d="M253.44 156.42C254.44 152.55 250.03 149.25 246.03 149.26C239.03 149.26 227.44 149.26 217.15 149.26C196.03 149.16 154.65 148.54 133.55 149.08H133.34C114.34 149.08 119.2 141.65 121.59 134.13C129.32 109.83 137.3 86.06 144.85 61.68C148 51.56 151.78 48.62 163 48.86C203.34 48.94 280.11 48.8 320.45 48.56C323.941 48.4816 327.358 47.544 330.4 45.83C337.08 42 339.07 34 345.85 7.77C346.85 3.71 342.91 0.33 336.76 0.21C332.05 0.12 327.3 0 322.56 0C266 0.45 172.94 -0.46 116.38 0.45C112.05 0.57 105.72 5.14 104 9.12C98.58 21.82 94.81 35.18 90.57 48.34C73.66 101.27 66.6 126.61 41.2 201C31.84 227.69 24.41 255 16.02 281.93C11.07 297.73 5.62001 313.4 0.510012 329.18C-1.43999 335.18 2.44001 338.9 7.67001 339.18C19.8511 340.006 32.0756 339.959 44.25 339.04C49.25 338.66 56.57 334.11 58.03 329.92C67.48 302.92 75.6 275.44 84.14 248.12C87.88 236.12 90.05 227.61 95.67 209.12C97.33 203.68 103.35 198.46 109.47 198.46C114.32 198.46 118.87 198.62 124.08 198.46C154.98 197.55 190.78 198.21 227 198.21C239.92 198.27 247.07 181 253.44 156.42Z" fill="white"/>
</g>
<defs>
<clipPath id="clip0_113_2">
<rect width="1457.07" height="472.35" fill="white"/>
</clipPath>
</defs>
</svg>
