<?xml version="1.0" encoding="utf-8"?>
<!-- Generator: Adobe Illustrator 26.1.0, SVG Export Plug-In . SVG Version: 6.00 Build 0)  -->
<svg version="1.1" id="Layer_1" xmlns="http://www.w3.org/2000/svg" xmlns:xlink="http://www.w3.org/1999/xlink" x="0px" y="0px"
	 viewBox="0 0 209.44 44" style="enable-background:new 0 0 209.44 44;" xml:space="preserve">
<style type="text/css">
	.st0{fill:url(#SVGID_1_);}
	.st1{fill:url(#SVGID_00000128486242099398314120000001512829107508401056_);}
	.st2{fill:url(#SVGID_00000043423311871675985770000008927538076068324782_);}
	.st3{fill:url(#SVGID_00000088854039412137590800000017921832643612279468_);}
	.st4{fill:url(#SVGID_00000118392169536278689550000002658208817061721518_);}
	.st5{fill:url(#SVGID_00000150804385476789323490000007272594938193500326_);}
	.st6{fill:url(#SVGID_00000147186807210858192180000017011842872931504006_);}
	.st7{fill:url(#SVGID_00000045577296870587144480000011716353103748514199_);}
	.st8{fill:url(#SVGID_00000121963086724738035290000006360110537236702365_);}
	.st9{fill:url(#SVGID_00000182487716738459780980000000687732018626509962_);}
	.st10{fill:url(#SVGID_00000111177521823006548740000002444676045681406368_);}
	.st11{fill:url(#SVGID_00000003107257620429030300000005888114656711218565_);}
	.st12{fill:url(#SVGID_00000072990060787959617840000009226151919652300474_);}
	.st13{fill:url(#SVGID_00000016784855583615316970000016557244257660299917_);}
	.st14{fill:url(#SVGID_00000026131295967216988740000012180820689573445027_);}
	.st15{fill:#FFFFFF;}
	.st16{fill:url(#SVGID_00000062913567924240755310000006354388424663241120_);}
	.st17{fill:url(#SVGID_00000142137274852850685400000000319481638269734320_);}
	.st18{fill:url(#SVGID_00000036970416831327323030000003192073975828731797_);}
	.st19{fill:url(#SVGID_00000015343261063058340010000017288869234480909216_);}
</style>
<g>
	<g>
		<path class="st15" d="M45.26,30.73c-1.37-0.36-2.49-0.84-3.34-1.44l1.67-3.75c0.81,0.53,1.74,0.96,2.8,1.29
			c1.06,0.33,2.11,0.49,3.14,0.49c1.95,0,2.93-0.49,2.93-1.47c0-0.51-0.28-0.9-0.84-1.14c-0.56-0.25-1.45-0.51-2.69-0.78
			c-1.35-0.29-2.49-0.6-3.39-0.94c-0.91-0.33-1.69-0.87-2.34-1.61c-0.65-0.74-0.98-1.73-0.98-2.98c0-1.1,0.3-2.09,0.9-2.97
			c0.6-0.88,1.49-1.58,2.69-2.1c1.19-0.51,2.65-0.77,4.38-0.77c1.18,0,2.35,0.13,3.5,0.4c1.15,0.27,2.16,0.66,3.03,1.17l-1.57,3.78
			c-1.71-0.93-3.38-1.39-4.99-1.39c-1.01,0-1.75,0.15-2.21,0.45s-0.69,0.69-0.69,1.17c0,0.48,0.27,0.84,0.82,1.08
			c0.55,0.24,1.43,0.49,2.65,0.75c1.37,0.29,2.51,0.6,3.41,0.94c0.9,0.33,1.68,0.87,2.34,1.59c0.66,0.73,0.99,1.72,0.99,2.97
			c0,1.08-0.3,2.06-0.9,2.93c-0.6,0.87-1.5,1.57-2.7,2.1c-1.2,0.52-2.66,0.78-4.37,0.78C48.05,31.27,46.63,31.09,45.26,30.73z"/>
		<path class="st15" d="M68.68,30.34c-0.41,0.26-0.91,0.45-1.5,0.59c-0.59,0.14-1.22,0.21-1.89,0.21c-1.82,0-3.21-0.45-4.19-1.34
			c-0.98-0.89-1.47-2.22-1.47-3.99v-4.68H57.6v-3.65h2.03v-3.63h4.89v3.63h3.19v3.65h-3.19v4.63c0,0.5,0.13,0.89,0.4,1.17
			c0.27,0.28,0.62,0.42,1.07,0.42c0.57,0,1.06-0.15,1.49-0.44L68.68,30.34z"/>
		<path class="st15" d="M81.28,18.32c1.22,1.05,1.83,2.67,1.83,4.85v7.74h-4.55v-1.8c-0.7,1.35-2.07,2.03-4.11,2.03
			c-1.08,0-2.01-0.19-2.8-0.57c-0.79-0.38-1.38-0.89-1.79-1.53c-0.4-0.64-0.6-1.38-0.6-2.2c0-1.32,0.51-2.34,1.52-3.07
			c1.01-0.73,2.57-1.09,4.68-1.09h2.78c-0.09-1.47-1.07-2.21-2.96-2.21c-0.67,0-1.35,0.11-2.03,0.32c-0.69,0.21-1.27,0.51-1.75,0.89
			l-1.65-3.32c0.77-0.51,1.71-0.91,2.82-1.2c1.11-0.28,2.21-0.42,3.33-0.42C78.3,16.74,80.06,17.27,81.28,18.32z M77.29,27.64
			c0.43-0.27,0.74-0.68,0.93-1.21v-1.21h-2.11c-1.42,0-2.13,0.47-2.13,1.41c0,0.43,0.16,0.77,0.49,1.03
			c0.33,0.26,0.77,0.39,1.34,0.39S76.87,27.91,77.29,27.64z"/>
		<path class="st15" d="M97.9,17.61c1.04,0.58,1.86,1.42,2.47,2.51c0.61,1.09,0.91,2.35,0.91,3.79s-0.3,2.71-0.91,3.81
			c-0.61,1.1-1.43,1.94-2.47,2.53c-1.04,0.59-2.19,0.89-3.46,0.89c-1.83,0-3.21-0.54-4.11-1.62v1.39h-4.65V11.83h4.89v6.35
			c0.94-0.96,2.24-1.44,3.88-1.44C95.71,16.74,96.86,17.03,97.9,17.61z M95.52,26.37c0.55-0.59,0.82-1.41,0.82-2.46
			c0-1.03-0.27-1.83-0.82-2.42c-0.55-0.58-1.25-0.87-2.11-0.87c-0.86,0-1.56,0.29-2.11,0.87c-0.55,0.58-0.82,1.39-0.82,2.42
			c0,1.05,0.27,1.86,0.82,2.46c0.55,0.59,1.25,0.89,2.11,0.89C94.27,27.25,94.97,26.96,95.52,26.37z"/>
		<path class="st15" d="M103.03,11.83h4.89v19.08h-4.89V11.83z"/>
		<path class="st15" d="M124.73,25.17H114.6c0.21,0.72,0.6,1.27,1.2,1.66c0.59,0.39,1.33,0.58,2.22,0.58c0.67,0,1.25-0.09,1.74-0.28
			c0.49-0.19,0.98-0.5,1.48-0.93l2.57,2.67c-1.35,1.51-3.33,2.26-5.94,2.26c-1.63,0-3.06-0.31-4.29-0.93
			c-1.23-0.62-2.19-1.47-2.87-2.57c-0.68-1.1-1.02-2.34-1.02-3.73c0-1.37,0.33-2.6,0.99-3.69c0.66-1.09,1.57-1.94,2.74-2.56
			c1.17-0.62,2.48-0.93,3.93-0.93c1.39,0,2.65,0.29,3.78,0.86c1.13,0.57,2.03,1.41,2.69,2.49c0.66,1.09,0.99,2.38,0.99,3.87
			C124.81,24,124.78,24.4,124.73,25.17z M115.49,20.85c-0.51,0.43-0.83,1.01-0.96,1.75h5.71c-0.14-0.74-0.46-1.32-0.96-1.75
			c-0.51-0.43-1.14-0.64-1.89-0.64C116.62,20.21,115.99,20.42,115.49,20.85z"/>
		<path class="st15" d="M129.55,30.16c-1.09-0.6-1.94-1.43-2.56-2.48c-0.62-1.05-0.93-2.25-0.93-3.59c0-1.34,0.31-2.53,0.93-3.59
			c0.62-1.05,1.47-1.88,2.56-2.47c1.09-0.59,2.33-0.89,3.71-0.89c1.23,0,2.34,0.25,3.3,0.75c0.97,0.5,1.72,1.22,2.25,2.16
			l-1.88,1.21c-0.43-0.65-0.96-1.14-1.59-1.47c-0.63-0.33-1.34-0.49-2.11-0.49c-0.89,0-1.69,0.2-2.4,0.59
			c-0.71,0.39-1.27,0.96-1.67,1.68c-0.4,0.73-0.6,1.56-0.6,2.51c0,0.96,0.2,1.8,0.6,2.53c0.4,0.73,0.96,1.29,1.67,1.68
			c0.71,0.39,1.51,0.59,2.4,0.59c0.77,0,1.47-0.16,2.11-0.49c0.63-0.33,1.17-0.81,1.59-1.47l1.88,1.18
			c-0.53,0.94-1.28,1.67-2.25,2.17c-0.97,0.51-2.07,0.76-3.3,0.76C131.88,31.06,130.64,30.76,129.55,30.16z"/>
		<path class="st15" d="M141.31,11.83h2.47v19.08h-2.47V11.83z"/>
		<path class="st15" d="M160.67,17.28v13.63h-2.34v-2.06c-0.5,0.7-1.15,1.25-1.97,1.63c-0.81,0.39-1.7,0.58-2.66,0.58
			c-1.82,0-3.25-0.5-4.29-1.5c-1.05-1-1.57-2.48-1.57-4.43v-7.84h2.47v7.56c0,1.32,0.32,2.32,0.95,3c0.63,0.68,1.54,1.02,2.73,1.02
			c1.3,0,2.33-0.39,3.09-1.18c0.75-0.79,1.13-1.9,1.13-3.34v-7.04H160.67z"/>
		<path class="st15" d="M165.55,30.61c-1.03-0.3-1.83-0.68-2.42-1.14l1.03-1.95c0.6,0.43,1.33,0.77,2.18,1.03
			c0.86,0.26,1.72,0.39,2.6,0.39c2.16,0,3.24-0.62,3.24-1.85c0-0.41-0.15-0.74-0.44-0.98c-0.29-0.24-0.66-0.42-1.09-0.53
			c-0.44-0.11-1.06-0.24-1.86-0.37c-1.1-0.17-1.99-0.37-2.69-0.59s-1.29-0.6-1.79-1.13c-0.5-0.53-0.75-1.28-0.75-2.24
			c0-1.23,0.51-2.22,1.54-2.97c1.03-0.75,2.41-1.12,4.14-1.12c0.91,0,1.82,0.11,2.73,0.33c0.91,0.22,1.65,0.52,2.24,0.9l-1.05,1.95
			c-1.11-0.72-2.43-1.08-3.93-1.08c-1.05,0-1.84,0.17-2.39,0.51c-0.55,0.34-0.82,0.8-0.82,1.36c0,0.45,0.15,0.8,0.46,1.05
			c0.31,0.26,0.69,0.45,1.14,0.57c0.45,0.12,1.09,0.26,1.92,0.41c1.1,0.19,1.98,0.39,2.66,0.6c0.68,0.21,1.26,0.58,1.74,1.09
			c0.48,0.51,0.72,1.23,0.72,2.16c0,1.23-0.53,2.22-1.58,2.94c-1.05,0.73-2.49,1.09-4.31,1.09
			C167.65,31.06,166.58,30.91,165.55,30.61z"/>
		<path class="st15" d="M184.89,30.11c-0.36,0.31-0.81,0.54-1.34,0.71c-0.53,0.16-1.08,0.24-1.65,0.24c-1.37,0-2.43-0.37-3.19-1.11
			c-0.75-0.74-1.13-1.79-1.13-3.16v-7.48h-2.31v-2.03h2.31V14.3h2.47v2.98h3.91v2.03h-3.91v7.38c0,0.74,0.18,1.3,0.55,1.7
			c0.37,0.39,0.9,0.59,1.58,0.59c0.75,0,1.4-0.21,1.93-0.64L184.89,30.11z"/>
		<path class="st15" d="M199.16,24.92H188.1c0.15,1.2,0.68,2.16,1.58,2.89c0.9,0.73,2.02,1.09,3.35,1.09c1.63,0,2.94-0.55,3.93-1.65
			l1.36,1.59c-0.62,0.72-1.38,1.27-2.3,1.65c-0.92,0.38-1.94,0.57-3.07,0.57c-1.44,0-2.72-0.3-3.83-0.89
			c-1.11-0.59-1.98-1.42-2.58-2.48c-0.61-1.06-0.91-2.26-0.91-3.6c0-1.32,0.3-2.51,0.89-3.57c0.59-1.06,1.41-1.89,2.44-2.48
			c1.04-0.59,2.21-0.89,3.51-0.89c1.3,0,2.46,0.3,3.48,0.89c1.02,0.59,1.82,1.42,2.39,2.48c0.57,1.06,0.86,2.28,0.86,3.65
			C199.21,24.36,199.19,24.61,199.16,24.92z M189.5,20.31c-0.8,0.72-1.26,1.66-1.4,2.83h8.74c-0.14-1.15-0.6-2.09-1.4-2.82
			c-0.8-0.73-1.79-1.09-2.97-1.09C191.29,19.23,190.3,19.59,189.5,20.31z"/>
		<path class="st15" d="M206.38,17.77c0.84-0.41,1.86-0.62,3.06-0.62v2.39c-0.14-0.02-0.33-0.03-0.57-0.03
			c-1.34,0-2.39,0.4-3.15,1.2c-0.76,0.8-1.14,1.93-1.14,3.41v6.79h-2.47V17.28h2.37v2.29C204.91,18.78,205.54,18.18,206.38,17.77z"
			/>
	</g>
	<g>
		<polygon class="st15" points="15.88,21.73 31.76,15.2 31.76,10.18 15.88,16.7 0,10.18 0,12.53 0,15.2 0,19.45 0,23 0,24.47 
			15.88,31 27.07,26.4 27.07,30.65 15.88,35.24 0,28.72 0,33.74 15.88,40.27 31.76,33.74 31.76,32.6 31.76,28.72 31.76,24.47 
			31.76,22.13 31.76,19.45 15.88,25.98 4.7,21.38 4.7,17.13 		"/>
		<polygon class="st15" points="29.54,8.85 26.01,10.3 25.8,10.38 15.88,6.67 5.96,10.39 2.22,8.85 15.88,3.73 		"/>
	</g>
</g>
</svg>
