<?xml version="1.0" encoding="utf-8"?>
<!-- Generator: Adobe Illustrator 26.1.0, SVG Export Plug-In . SVG Version: 6.00 Build 0)  -->
<svg version="1.1" id="Layer_1" xmlns="http://www.w3.org/2000/svg" xmlns:xlink="http://www.w3.org/1999/xlink" x="0px" y="0px"
	 viewBox="0 0 209.44 44" style="enable-background:new 0 0 209.44 44;" xml:space="preserve">
<style type="text/css">
	.st0{fill:url(#SVGID_1_);}
	.st1{fill:url(#SVGID_00000165201279839752617490000000752752588226661821_);}
	.st2{fill:url(#SVGID_00000029032331665267683400000014139653329325729679_);}
	.st3{fill:url(#SVGID_00000085223346646026986900000015803122092498915749_);}
	.st4{fill:url(#SVGID_00000091726777794867638610000012623276324672064924_);}
	.st5{fill:url(#SVGID_00000134216855678344997520000006050189601310771095_);}
	.st6{fill:url(#SVGID_00000006689819881694674170000009680633230869033356_);}
	.st7{fill:url(#SVGID_00000121275449582516464530000017428981746605057667_);}
	.st8{fill:url(#SVGID_00000047782035204566351720000011975793115591480971_);}
	.st9{fill:url(#SVGID_00000093144941500588277620000011305282483815740299_);}
	.st10{fill:url(#SVGID_00000136371184804281709650000016558641013740548249_);}
	.st11{fill:url(#SVGID_00000176759592923209256850000010369372434706761118_);}
	.st12{fill:url(#SVGID_00000108305026139442238650000004147693824089925284_);}
	.st13{fill:url(#SVGID_00000153705514544503466110000009715102615473836441_);}
	.st14{fill:url(#SVGID_00000031894479967726545400000003757685573851653535_);}
	.st15{fill:#FFFFFF;}
	.st16{fill:url(#SVGID_00000146491679747419435280000004037767226744374187_);}
	.st17{fill:url(#SVGID_00000049203289547319873530000006311043855025835164_);}
	.st18{fill:url(#SVGID_00000040552555668054213800000010863086146545259445_);}
	.st19{fill:url(#SVGID_00000103225765816610131560000015012117758589771446_);}
</style>
<g>
	<g>
		<linearGradient id="SVGID_1_" gradientUnits="userSpaceOnUse" x1="41.7477" y1="21.6234" x2="124.8932" y2="24.5408">
			<stop  offset="0" style="stop-color:#293896"/>
			<stop  offset="1" style="stop-color:#643D97"/>
		</linearGradient>
		<path class="st0" d="M45.26,30.73c-1.37-0.36-2.49-0.84-3.34-1.44l1.67-3.75c0.81,0.53,1.74,0.96,2.8,1.29
			c1.06,0.33,2.11,0.49,3.14,0.49c1.95,0,2.93-0.49,2.93-1.47c0-0.51-0.28-0.9-0.84-1.14c-0.56-0.25-1.45-0.51-2.69-0.78
			c-1.35-0.29-2.49-0.6-3.39-0.94c-0.91-0.33-1.69-0.87-2.34-1.61c-0.65-0.74-0.98-1.73-0.98-2.98c0-1.1,0.3-2.09,0.9-2.97
			c0.6-0.88,1.49-1.58,2.69-2.1c1.19-0.51,2.65-0.77,4.38-0.77c1.18,0,2.35,0.13,3.5,0.4c1.15,0.27,2.16,0.66,3.03,1.17l-1.57,3.78
			c-1.71-0.93-3.38-1.39-4.99-1.39c-1.01,0-1.75,0.15-2.21,0.45s-0.69,0.69-0.69,1.17c0,0.48,0.27,0.84,0.82,1.08
			c0.55,0.24,1.43,0.49,2.65,0.75c1.37,0.29,2.51,0.6,3.41,0.94c0.9,0.33,1.68,0.87,2.34,1.59c0.66,0.73,0.99,1.72,0.99,2.97
			c0,1.08-0.3,2.06-0.9,2.93c-0.6,0.87-1.5,1.57-2.7,2.1c-1.2,0.52-2.66,0.78-4.37,0.78C48.05,31.27,46.63,31.09,45.26,30.73z"/>
		
			<linearGradient id="SVGID_00000012439108096817239050000012014555993261014171_" gradientUnits="userSpaceOnUse" x1="41.7454" y1="21.6893" x2="124.8909" y2="24.6067">
			<stop  offset="0" style="stop-color:#293896"/>
			<stop  offset="1" style="stop-color:#643D97"/>
		</linearGradient>
		<path style="fill:url(#SVGID_00000012439108096817239050000012014555993261014171_);" d="M68.68,30.34
			c-0.41,0.26-0.91,0.45-1.5,0.59c-0.59,0.14-1.22,0.21-1.89,0.21c-1.82,0-3.21-0.45-4.19-1.34c-0.98-0.89-1.47-2.22-1.47-3.99
			v-4.68H57.6v-3.65h2.03v-3.63h4.89v3.63h3.19v3.65h-3.19v4.63c0,0.5,0.13,0.89,0.4,1.17c0.27,0.28,0.62,0.42,1.07,0.42
			c0.57,0,1.06-0.15,1.49-0.44L68.68,30.34z"/>
		
			<linearGradient id="SVGID_00000093885481163851056870000017509517883016659857_" gradientUnits="userSpaceOnUse" x1="41.7078" y1="22.761" x2="124.8533" y2="25.6784">
			<stop  offset="0" style="stop-color:#293896"/>
			<stop  offset="1" style="stop-color:#643D97"/>
		</linearGradient>
		<path style="fill:url(#SVGID_00000093885481163851056870000017509517883016659857_);" d="M81.28,18.32
			c1.22,1.05,1.83,2.67,1.83,4.85v7.74h-4.55v-1.8c-0.7,1.35-2.07,2.03-4.11,2.03c-1.08,0-2.01-0.19-2.8-0.57
			c-0.79-0.38-1.38-0.89-1.79-1.53c-0.4-0.64-0.6-1.38-0.6-2.2c0-1.32,0.51-2.34,1.52-3.07c1.01-0.73,2.57-1.09,4.68-1.09h2.78
			c-0.09-1.47-1.07-2.21-2.96-2.21c-0.67,0-1.35,0.11-2.03,0.32c-0.69,0.21-1.27,0.51-1.75,0.89l-1.65-3.32
			c0.77-0.51,1.71-0.91,2.82-1.2c1.11-0.28,2.21-0.42,3.33-0.42C78.3,16.74,80.06,17.27,81.28,18.32z M77.29,27.64
			c0.43-0.27,0.74-0.68,0.93-1.21v-1.21h-2.11c-1.42,0-2.13,0.47-2.13,1.41c0,0.43,0.16,0.77,0.49,1.03
			c0.33,0.26,0.77,0.39,1.34,0.39S76.87,27.91,77.29,27.64z"/>
		
			<linearGradient id="SVGID_00000121983828583406430100000017810081024631644290_" gradientUnits="userSpaceOnUse" x1="41.8137" y1="19.7426" x2="124.9592" y2="22.66">
			<stop  offset="0" style="stop-color:#293896"/>
			<stop  offset="1" style="stop-color:#643D97"/>
		</linearGradient>
		<path style="fill:url(#SVGID_00000121983828583406430100000017810081024631644290_);" d="M97.9,17.61
			c1.04,0.58,1.86,1.42,2.47,2.51c0.61,1.09,0.91,2.35,0.91,3.79s-0.3,2.71-0.91,3.81c-0.61,1.1-1.43,1.94-2.47,2.53
			c-1.04,0.59-2.19,0.89-3.46,0.89c-1.83,0-3.21-0.54-4.11-1.62v1.39h-4.65V11.83h4.89v6.35c0.94-0.96,2.24-1.44,3.88-1.44
			C95.71,16.74,96.86,17.03,97.9,17.61z M95.52,26.37c0.55-0.59,0.82-1.41,0.82-2.46c0-1.03-0.27-1.83-0.82-2.42
			c-0.55-0.58-1.25-0.87-2.11-0.87c-0.86,0-1.56,0.29-2.11,0.87c-0.55,0.58-0.82,1.39-0.82,2.42c0,1.05,0.27,1.86,0.82,2.46
			c0.55,0.59,1.25,0.89,2.11,0.89C94.27,27.25,94.97,26.96,95.52,26.37z"/>
		
			<linearGradient id="SVGID_00000168812816765319670600000006245919171370331265_" gradientUnits="userSpaceOnUse" x1="41.8351" y1="19.1345" x2="124.9805" y2="22.0519">
			<stop  offset="0" style="stop-color:#293896"/>
			<stop  offset="1" style="stop-color:#643D97"/>
		</linearGradient>
		<path style="fill:url(#SVGID_00000168812816765319670600000006245919171370331265_);" d="M103.03,11.83h4.89v19.08h-4.89V11.83z"
			/>
		
			<linearGradient id="SVGID_00000011025137830479600710000002825653936385627055_" gradientUnits="userSpaceOnUse" x1="41.7599" y1="21.2779" x2="124.9053" y2="24.1953">
			<stop  offset="0" style="stop-color:#293896"/>
			<stop  offset="1" style="stop-color:#643D97"/>
		</linearGradient>
		<path style="fill:url(#SVGID_00000011025137830479600710000002825653936385627055_);" d="M124.73,25.17H114.6
			c0.21,0.72,0.6,1.27,1.2,1.66c0.59,0.39,1.33,0.58,2.22,0.58c0.67,0,1.25-0.09,1.74-0.28c0.49-0.19,0.98-0.5,1.48-0.93l2.57,2.67
			c-1.35,1.51-3.33,2.26-5.94,2.26c-1.63,0-3.06-0.31-4.29-0.93c-1.23-0.62-2.19-1.47-2.87-2.57c-0.68-1.1-1.02-2.34-1.02-3.73
			c0-1.37,0.33-2.6,0.99-3.69c0.66-1.09,1.57-1.94,2.74-2.56c1.17-0.62,2.48-0.93,3.93-0.93c1.39,0,2.65,0.29,3.78,0.86
			c1.13,0.57,2.03,1.41,2.69,2.49c0.66,1.09,0.99,2.38,0.99,3.87C124.81,24,124.78,24.4,124.73,25.17z M115.49,20.85
			c-0.51,0.43-0.83,1.01-0.96,1.75h5.71c-0.14-0.74-0.46-1.32-0.96-1.75c-0.51-0.43-1.14-0.64-1.89-0.64
			C116.62,20.21,115.99,20.42,115.49,20.85z"/>
		
			<linearGradient id="SVGID_00000020400602439706943070000009396785168074635668_" gradientUnits="userSpaceOnUse" x1="41.7733" y1="20.8953" x2="124.9187" y2="23.8127">
			<stop  offset="0" style="stop-color:#293896"/>
			<stop  offset="1" style="stop-color:#643D97"/>
		</linearGradient>
		<path style="fill:url(#SVGID_00000020400602439706943070000009396785168074635668_);" d="M129.55,30.16
			c-1.09-0.6-1.94-1.43-2.56-2.48c-0.62-1.05-0.93-2.25-0.93-3.59c0-1.34,0.31-2.53,0.93-3.59c0.62-1.05,1.47-1.88,2.56-2.47
			c1.09-0.59,2.33-0.89,3.71-0.89c1.23,0,2.34,0.25,3.3,0.75c0.97,0.5,1.72,1.22,2.25,2.16l-1.88,1.21
			c-0.43-0.65-0.96-1.14-1.59-1.47c-0.63-0.33-1.34-0.49-2.11-0.49c-0.89,0-1.69,0.2-2.4,0.59c-0.71,0.39-1.27,0.96-1.67,1.68
			c-0.4,0.73-0.6,1.56-0.6,2.51c0,0.96,0.2,1.8,0.6,2.53c0.4,0.73,0.96,1.29,1.67,1.68c0.71,0.39,1.51,0.59,2.4,0.59
			c0.77,0,1.47-0.16,2.11-0.49c0.63-0.33,1.17-0.81,1.59-1.47l1.88,1.18c-0.53,0.94-1.28,1.67-2.25,2.17
			c-0.97,0.51-2.07,0.76-3.3,0.76C131.88,31.06,130.64,30.76,129.55,30.16z"/>
		
			<linearGradient id="SVGID_00000110437690147338794350000017800192777230981034_" gradientUnits="userSpaceOnUse" x1="41.8806" y1="17.8353" x2="125.0261" y2="20.7527">
			<stop  offset="0" style="stop-color:#293896"/>
			<stop  offset="1" style="stop-color:#643D97"/>
		</linearGradient>
		<path style="fill:url(#SVGID_00000110437690147338794350000017800192777230981034_);" d="M141.31,11.83h2.47v19.08h-2.47V11.83z"
			/>
		
			<linearGradient id="SVGID_00000107589076720124843320000002471308885073489333_" gradientUnits="userSpaceOnUse" x1="41.8003" y1="20.1239" x2="124.9458" y2="23.0413">
			<stop  offset="0" style="stop-color:#293896"/>
			<stop  offset="1" style="stop-color:#643D97"/>
		</linearGradient>
		<path style="fill:url(#SVGID_00000107589076720124843320000002471308885073489333_);" d="M160.67,17.28v13.63h-2.34v-2.06
			c-0.5,0.7-1.15,1.25-1.97,1.63c-0.81,0.39-1.7,0.58-2.66,0.58c-1.82,0-3.25-0.5-4.29-1.5c-1.05-1-1.57-2.48-1.57-4.43v-7.84h2.47
			v7.56c0,1.32,0.32,2.32,0.95,3c0.63,0.68,1.54,1.02,2.73,1.02c1.3,0,2.33-0.39,3.09-1.18c0.75-0.79,1.13-1.9,1.13-3.34v-7.04
			H160.67z"/>
		
			<linearGradient id="SVGID_00000141428294061385731630000008132960548516751529_" gradientUnits="userSpaceOnUse" x1="41.8172" y1="19.6428" x2="124.9627" y2="22.5602">
			<stop  offset="0" style="stop-color:#293896"/>
			<stop  offset="1" style="stop-color:#643D97"/>
		</linearGradient>
		<path style="fill:url(#SVGID_00000141428294061385731630000008132960548516751529_);" d="M165.55,30.61
			c-1.03-0.3-1.83-0.68-2.42-1.14l1.03-1.95c0.6,0.43,1.33,0.77,2.18,1.03c0.86,0.26,1.72,0.39,2.6,0.39c2.16,0,3.24-0.62,3.24-1.85
			c0-0.41-0.15-0.74-0.44-0.98c-0.29-0.24-0.66-0.42-1.09-0.53c-0.44-0.11-1.06-0.24-1.86-0.37c-1.1-0.17-1.99-0.37-2.69-0.59
			s-1.29-0.6-1.79-1.13c-0.5-0.53-0.75-1.28-0.75-2.24c0-1.23,0.51-2.22,1.54-2.97c1.03-0.75,2.41-1.12,4.14-1.12
			c0.91,0,1.82,0.11,2.73,0.33c0.91,0.22,1.65,0.52,2.24,0.9l-1.05,1.95c-1.11-0.72-2.43-1.08-3.93-1.08
			c-1.05,0-1.84,0.17-2.39,0.51c-0.55,0.34-0.82,0.8-0.82,1.36c0,0.45,0.15,0.8,0.46,1.05c0.31,0.26,0.69,0.45,1.14,0.57
			c0.45,0.12,1.09,0.26,1.92,0.41c1.1,0.19,1.98,0.39,2.66,0.6c0.68,0.21,1.26,0.58,1.74,1.09c0.48,0.51,0.72,1.23,0.72,2.16
			c0,1.23-0.53,2.22-1.58,2.94c-1.05,0.73-2.49,1.09-4.31,1.09C167.65,31.06,166.58,30.91,165.55,30.61z"/>
		
			<linearGradient id="SVGID_00000064322470156904941790000007433339356891877279_" gradientUnits="userSpaceOnUse" x1="41.8819" y1="17.8001" x2="125.0273" y2="20.7175">
			<stop  offset="0" style="stop-color:#293896"/>
			<stop  offset="1" style="stop-color:#643D97"/>
		</linearGradient>
		<path style="fill:url(#SVGID_00000064322470156904941790000007433339356891877279_);" d="M184.89,30.11
			c-0.36,0.31-0.81,0.54-1.34,0.71c-0.53,0.16-1.08,0.24-1.65,0.24c-1.37,0-2.43-0.37-3.19-1.11c-0.75-0.74-1.13-1.79-1.13-3.16
			v-7.48h-2.31v-2.03h2.31V14.3h2.47v2.98h3.91v2.03h-3.91v7.38c0,0.74,0.18,1.3,0.55,1.7c0.37,0.39,0.9,0.59,1.58,0.59
			c0.75,0,1.4-0.21,1.93-0.64L184.89,30.11z"/>
		
			<linearGradient id="SVGID_00000005985291905655850030000008075200780031032994_" gradientUnits="userSpaceOnUse" x1="41.8464" y1="18.8123" x2="124.9918" y2="21.7297">
			<stop  offset="0" style="stop-color:#293896"/>
			<stop  offset="1" style="stop-color:#643D97"/>
		</linearGradient>
		<path style="fill:url(#SVGID_00000005985291905655850030000008075200780031032994_);" d="M199.16,24.92H188.1
			c0.15,1.2,0.68,2.16,1.58,2.89c0.9,0.73,2.02,1.09,3.35,1.09c1.63,0,2.94-0.55,3.93-1.65l1.36,1.59c-0.62,0.72-1.38,1.27-2.3,1.65
			c-0.92,0.38-1.94,0.57-3.07,0.57c-1.44,0-2.72-0.3-3.83-0.89c-1.11-0.59-1.98-1.42-2.58-2.48c-0.61-1.06-0.91-2.26-0.91-3.6
			c0-1.32,0.3-2.51,0.89-3.57c0.59-1.06,1.41-1.89,2.44-2.48c1.04-0.59,2.21-0.89,3.51-0.89c1.3,0,2.46,0.3,3.48,0.89
			c1.02,0.59,1.82,1.42,2.39,2.48c0.57,1.06,0.86,2.28,0.86,3.65C199.21,24.36,199.19,24.61,199.16,24.92z M189.5,20.31
			c-0.8,0.72-1.26,1.66-1.4,2.83h8.74c-0.14-1.15-0.6-2.09-1.4-2.82c-0.8-0.73-1.79-1.09-2.97-1.09
			C191.29,19.23,190.3,19.59,189.5,20.31z"/>
		
			<linearGradient id="SVGID_00000110452432930154438790000011918024602036828040_" gradientUnits="userSpaceOnUse" x1="41.8651" y1="18.2771" x2="125.0106" y2="21.1944">
			<stop  offset="0" style="stop-color:#293896"/>
			<stop  offset="1" style="stop-color:#643D97"/>
		</linearGradient>
		<path style="fill:url(#SVGID_00000110452432930154438790000011918024602036828040_);" d="M206.38,17.77
			c0.84-0.41,1.86-0.62,3.06-0.62v2.39c-0.14-0.02-0.33-0.03-0.57-0.03c-1.34,0-2.39,0.4-3.15,1.2c-0.76,0.8-1.14,1.93-1.14,3.41
			v6.79h-2.47V17.28h2.37v2.29C204.91,18.78,205.54,18.18,206.38,17.77z"/>
	</g>
	<g>
		
			<linearGradient id="SVGID_00000036248439810021999300000017600673293188612505_" gradientUnits="userSpaceOnUse" x1="9.094947e-13" y1="25.2227" x2="31.7616" y2="25.2227">
			<stop  offset="0" style="stop-color:#293896"/>
			<stop  offset="1" style="stop-color:#5B439A"/>
		</linearGradient>
		<polygon style="fill:url(#SVGID_00000036248439810021999300000017600673293188612505_);" points="15.88,21.73 31.76,15.2 
			31.76,10.18 15.88,16.7 0,10.18 0,12.53 0,15.2 0,19.45 0,23 0,24.47 15.88,31 27.07,26.4 27.07,30.65 15.88,35.24 0,28.72 
			0,33.74 15.88,40.27 31.76,33.74 31.76,32.6 31.76,28.72 31.76,24.47 31.76,22.13 31.76,19.45 15.88,25.98 4.7,21.38 4.7,17.13 		
			"/>
		
			<linearGradient id="SVGID_00000116197162098222248320000001882032812060727445_" gradientUnits="userSpaceOnUse" x1="2.222" y1="7.0591" x2="29.541" y2="7.0591">
			<stop  offset="0" style="stop-color:#293896"/>
			<stop  offset="1" style="stop-color:#5B439A"/>
		</linearGradient>
		<polygon style="fill:url(#SVGID_00000116197162098222248320000001882032812060727445_);" points="29.54,8.85 26.01,10.3 
			25.8,10.38 15.88,6.67 5.96,10.39 2.22,8.85 15.88,3.73 		"/>
	</g>
</g>
</svg>
